<svg width="36" height="36" viewBox="0 0 36 36" fill="none" xmlns="http://www.w3.org/2000/svg">
<rect width="36" height="36" rx="18" fill="#25D366"/>
<path d="M22.8752 20.1447C22.5827 20.0472 21.3152 19.3647 21.0227 19.2672C20.7302 19.1697 20.6327 19.1697 20.4377 19.3647C20.1694 19.7414 19.8763 20.0997 19.5602 20.4372C19.3652 20.6322 19.2677 20.6322 18.9752 20.5347C18.1601 20.2603 17.424 19.7919 16.8302 19.1697C16.2257 18.6543 15.7287 18.0248 15.3677 17.3172C15.1727 17.0247 15.3677 16.9272 15.4652 16.7322C15.6184 16.5897 15.7498 16.4254 15.8552 16.2447C15.9527 16.0497 16.0502 15.9522 16.1477 15.7572C16.2452 15.5622 16.1477 15.4647 16.1477 15.2697C16.1477 15.0747 15.5627 13.8072 15.2702 13.3197C14.9777 12.8322 14.8802 12.8322 14.6852 12.8322H14.1977C13.9422 12.8436 13.6996 12.9476 13.5152 13.1247C13.1947 13.4013 12.9406 13.7465 12.7718 14.1347C12.603 14.5229 12.5238 14.9442 12.5402 15.3672C12.6296 16.364 13.0016 17.3145 13.6127 18.107C14.7203 19.8617 16.3164 21.2545 18.205 22.1142C18.8875 22.4067 19.375 22.5042 19.765 22.6992C20.3004 22.871 20.8706 22.9045 21.4225 22.7967C22.1665 22.5981 22.8202 22.1508 23.275 21.5292C23.3982 21.1177 23.4638 20.6912 23.47 20.2617C23.2708 20.2634 23.0728 20.2304 22.885 20.1642L22.8752 20.1447ZM18.0002 26.7747C16.3805 26.7942 14.7884 26.3547 13.408 25.5072L13.1155 25.3122L9.6932 26.1897L10.5805 22.8747L10.3855 22.5822C9.49419 21.1444 9.02149 19.4866 9.02045 17.795C9.01852 16.0162 9.54436 14.2768 10.5314 12.797C11.5184 11.3172 12.9223 10.1635 14.5653 9.48187C16.2083 8.80027 18.0166 8.62142 19.7613 8.96798C21.506 9.31453 23.1087 10.1709 24.3665 11.4287C25.6243 12.6865 26.4806 14.2891 26.8272 16.0338C27.1737 17.7785 26.9949 19.5868 26.3133 21.2299C25.6317 22.8729 24.478 24.2767 22.9982 25.2638C21.5184 26.2508 19.779 26.7766 18.0002 26.7747ZM25.615 10.2777C23.5677 8.30433 20.8435 7.18816 18.0002 7.15771C15.1558 7.15771 12.4278 8.28767 10.4165 10.299C8.40516 12.3103 7.2752 15.0383 7.2752 17.8827C7.27473 19.7719 7.77969 21.6267 8.7377 23.255L7.1582 28.8417L12.9205 27.3792C14.5072 28.2433 16.2913 28.6801 18.0977 28.6467C19.5061 28.6467 20.9008 28.3693 22.202 27.8303C23.5032 27.2913 24.6855 26.5013 25.6814 25.5054C26.6773 24.5095 27.4673 23.3272 28.0063 22.026C28.5453 20.7248 28.8227 19.3301 28.8227 17.9217C28.7536 15.0656 27.5997 12.3429 25.5955 10.307" fill="#FAFBFC"/>
</svg>
