<svg width="20" height="19" viewBox="0 0 20 19" fill="none" xmlns="http://www.w3.org/2000/svg">
<g clip-path="url(#clip0_17102_1455)">
<path d="M0 11.1438V13.5485C0 14.5455 0.870968 15.2493 1.93548 15.2493H18.0645C19.129 15.2493 20 14.5455 20 13.5485V11.1438H0Z" fill="#F8D12E"/>
<path d="M18.0645 2.93262H1.93548C0.870968 2.93262 0 3.63643 0 4.6335V7.03819H20V4.6335C20 3.63643 19.129 2.93262 18.0645 2.93262Z" fill="#333333"/>
<path d="M20 7.03819H0V11.1438H20V7.03819Z" fill="#DB2727"/>
<path d="M18 15.2493C19.0645 15.2493 20 14.5455 20 13.5485V11.1438H12.7097L18 15.2493Z" fill="#DBB30F"/>
<path d="M18.0645 2.93262H1.93548L7.29032 7.03819H20V4.6335C20 3.63643 19.129 2.93262 18.0645 2.93262Z" fill="black"/>
<path d="M12.7419 11.1438L20 11.1438V7.03819L7.25806 7.03819L12.7419 11.1438Z" fill="#C10E0E"/>
<path d="M18.0645 2.93262H1.93548L16.871 7.03819H20V4.6335C20 3.63643 19.129 2.93262 18.0645 2.93262Z" fill="black"/>
<path d="M20 7.85931L20 7.03819L16.7097 7.03819L20 7.85931Z" fill="#A00808"/>
<path d="M20 13.5191C20 14.6042 19.129 15.2493 18.0645 15.2493H1.93548C0.870968 15.2493 0 14.4869 0 13.4898" fill="#D89F12"/>
</g>
<defs>
<clipPath id="clip0_17102_1455">
<rect width="20" height="18.1818" fill="white"/>
</clipPath>
</defs>
</svg>
